<?xml version="1.0" encoding="UTF-8"?>
<svg version="1.1" xmlns="http://www.w3.org/2000/svg" width="563" height="563">
<path d="M0 0 C185.79 0 371.58 0 563 0 C563 185.79 563 371.58 563 563 C377.21 563 191.42 563 0 563 C0 377.21 0 191.42 0 0 Z " fill="#E9EFF4" transform="translate(0,0)"/>
<path d="M0 0 C1.57322021 -0.02090698 1.57322021 -0.02090698 3.17822266 -0.04223633 C13.74793324 0.02163651 22.95833328 2.69072967 32.375 7.375 C33.20386719 7.77203125 34.03273438 8.1690625 34.88671875 8.578125 C54.28880922 18.43495345 70.06633776 34.06571456 77.26123047 54.85205078 C81.53570571 68.37258514 81.75323623 81.25200082 81.5625 95.3125 C81.54741235 97.26756771 81.53373123 99.2226468 81.52148438 101.17773438 C81.48883334 105.9104436 81.43728114 110.64259178 81.375 115.375 C81.93372803 115.35928955 82.49245605 115.3435791 83.06811523 115.32739258 C85.6494699 115.26425076 88.2306613 115.22576296 90.8125 115.1875 C91.69099609 115.16236328 92.56949219 115.13722656 93.47460938 115.11132812 C104.083937 114.99388169 114.11672909 118.59468773 122.01171875 125.88671875 C130.83352414 135.98013573 130.67225017 147.62186495 130.6496582 160.23925781 C130.65401046 161.8465651 130.65919532 163.45387032 130.66514587 165.06117249 C130.67849425 169.41056286 130.67911901 173.7598661 130.67658257 178.10927296 C130.67550968 181.7495562 130.68040455 185.38982204 130.685188 189.03010154 C130.69626957 197.6250615 130.69672869 206.21997776 130.69067383 214.81494141 C130.68463945 223.65813535 130.69693452 232.50116998 130.7182439 241.34433675 C130.73590713 248.95652247 130.74185369 256.5686577 130.73860615 264.18086314 C130.7368001 268.7184309 130.73936104 273.25588509 130.75332069 277.79343414 C130.76597091 282.06497835 130.76388753 286.33627592 130.75090981 290.6078167 C130.74855976 292.16696446 130.75122168 293.72612996 130.75953293 295.28525734 C130.83000543 309.54446689 129.45143144 323.08028663 119.0625 333.75 C105.97724771 341.66201301 92.947443 341.66548331 78.09912109 341.61791992 C76.15005937 341.61899415 74.20099796 341.62093491 72.25193787 341.62367249 C66.98146797 341.62850089 61.71108335 341.62089054 56.44062376 341.61071944 C50.91505761 341.60190674 45.38949387 341.603697 39.86392212 341.6040802 C30.58862896 341.60314506 21.31336861 341.59448078 12.03808594 341.58081055 C1.3237098 341.56507741 -9.39063045 341.55981287 -20.1050173 341.5605461 C-31.52836595 341.56122219 -42.95170082 341.55427853 -54.3750453 341.5450995 C-57.66030524 341.54297118 -60.94556295 341.54225873 -64.23082352 341.54186058 C-69.39695734 341.54085402 -74.56306119 341.53473181 -79.7291851 341.52469444 C-81.62219878 341.52178082 -83.51521591 341.52054176 -85.40823174 341.52112198 C-87.99733457 341.52161514 -90.58635434 341.51593296 -93.17544556 341.50871277 C-93.91962034 341.51026137 -94.66379512 341.51180997 -95.43052065 341.5134055 C-106.04539889 341.46471533 -112.46475751 339.54952512 -120.625 332.375 C-131.51348157 320.93548191 -131.92718381 305.82225623 -131.91552734 290.8503418 C-131.92152255 289.30347371 -131.92833035 287.75660859 -131.93588257 286.20974731 C-131.95344764 282.03396373 -131.95823388 277.85826226 -131.95951414 273.68244529 C-131.96094156 271.06678475 -131.96522225 268.4511447 -131.97050858 265.83548927 C-131.98897656 256.69117547 -131.99718314 247.54691973 -131.99560547 238.40258789 C-131.99440455 229.90923901 -132.01550554 221.41614442 -132.0470928 212.92285985 C-132.07333048 205.60445686 -132.08396965 198.28613656 -132.08269465 190.96768695 C-132.08218727 186.60836336 -132.08774568 182.24926613 -132.10905075 177.88998985 C-132.12856043 173.78661743 -132.12847175 169.68368441 -132.11401749 165.58029556 C-132.11194405 164.08445015 -132.11654166 162.58857628 -132.1287384 161.09277916 C-132.23610781 146.99936624 -129.87997466 134.22528534 -120 123.6328125 C-112.11044069 116.29113925 -104.07711231 114.78004111 -93.5625 115.125 C-92.50611328 115.14304687 -91.44972656 115.16109375 -90.36132812 115.1796875 C-87.7815745 115.22637987 -85.20379183 115.29184412 -82.625 115.375 C-82.65118408 114.20743164 -82.67736816 113.03986328 -82.7043457 111.83691406 C-82.79655646 107.40124576 -82.85285326 102.96565679 -82.8996582 98.52929688 C-82.92442142 96.62876022 -82.95824211 94.72831465 -83.00219727 92.828125 C-83.53391542 69.20732813 -78.99412043 47.31645446 -62.625 29.375 C-61.73941406 28.39660156 -60.85382813 27.41820313 -59.94140625 26.41015625 C-43.67925687 9.02960626 -23.74514972 0.20364921 0 0 Z " fill="#3A628F" transform="translate(280.625,84.625)"/>
<path d="M0 0 C1.29130072 0.88760215 2.56169491 1.80618764 3.8125 2.75 C4.54082031 3.29140625 5.26914062 3.8328125 6.01953125 4.390625 C15.39822811 11.99583744 20.04249157 21.4399747 23.8125 32.75 C23.8125 47.27 23.8125 61.79 23.8125 76.75 C-8.5275 76.75 -40.8675 76.75 -74.1875 76.75 C-74.1875 22.79472843 -74.1875 22.79472843 -60.1875 8.75 C-59.48367187 8.02296875 -58.77984375 7.2959375 -58.0546875 6.546875 C-42.37806062 -8.6091259 -18.67794204 -10.78276498 0 0 Z " fill="#D6E4F1" transform="translate(305.1875,124.25)"/>
<path d="M0 0 C5.24274453 3.35457787 9.34223923 6.63310794 12.46875 12.14453125 C12.95988281 12.99273437 13.45101562 13.8409375 13.95703125 14.71484375 C17.22008165 20.98585266 17.0368746 28.10446525 15.5078125 34.90234375 C12.68933684 43.35777074 8.47531959 51.49894589 0.53125 56.01953125 C-0.90811377 56.72622249 -2.36749257 57.39355637 -3.84375 58.01953125 C-4.57464844 58.385625 -5.30554688 58.75171875 -6.05859375 59.12890625 C-9.98931418 60.38585472 -13.68078211 60.3096991 -17.78125 60.26953125 C-18.56693359 60.27726562 -19.35261719 60.285 -20.16210938 60.29296875 C-27.16680856 60.26952206 -33.54820918 58.91256065 -38.84375 54.01953125 C-47.32231188 43.99060376 -50.7446801 36.03962471 -50.26171875 22.94140625 C-49.41178328 14.96631085 -45.46960584 8.64538709 -39.84375 3.01953125 C-26.95041888 -6.93153692 -14.15309174 -7.58909942 0 0 Z " fill="#D7E3F1" transform="translate(296.84375,284.98046875)"/>
<path d="M0 0 C0.66 0.33 1.32 0.66 2 1 C-1.3 4.3 -4.6 7.6 -8 11 C-8 7.0234755 -6.61988497 5.9109833 -4 3 C-1.75 1.1875 -1.75 1.1875 0 0 Z " fill="#BCCDE1" transform="translate(261,285)"/>
</svg>
